<?xml version="1.0" encoding="utf-8"?>
<!-- Generator: Adobe Illustrator 18.0.0, SVG Export Plug-In . SVG Version: 6.00 Build 0)  -->
<!DOCTYPE svg PUBLIC "-//W3C//DTD SVG 1.1//EN" "http://www.w3.org/Graphics/SVG/1.1/DTD/svg11.dtd">
<svg version="1.1" id="Layer_1" xmlns="http://www.w3.org/2000/svg" xmlns:xlink="http://www.w3.org/1999/xlink" x="0px" y="0px"
	 width="612px" height="54.7px" viewBox="2.4 497.3 612 54.7" enable-background="new 2.4 497.3 612 54.7" xml:space="preserve">
<g>
	<path fill="#C15B1B" d="M18.6,509H2.4v-10.7h43.9V509H30.2v42.2H18.6V509z"/>
	<path fill="#C15B1B" d="M53.4,498.3H65v20.9h21.4v-20.9h11.7v53H86.5V530H65v21.2H53.4V498.3z"/>
	<path fill="#C15B1B" d="M108.9,498.3h39.9v10.4h-28.4v10.7h25v10.4h-25v11.1h28.8v10.4h-40.3C108.9,551.3,108.9,498.3,108.9,498.3z
		"/>
	<path fill="#C15B1B" d="M182.4,498.3H194v42.3h26.4v10.6h-38L182.4,498.3L182.4,498.3z"/>
	<path fill="#C15B1B" d="M229.7,498.3h11.7v53h-11.7V498.3z"/>
	<path fill="#C15B1B" d="M254.6,498.3h24.6c6.1,0,10.8,1.7,13.9,4.7c2.4,2.4,3.7,5.4,3.7,9v0.1c0,6-3.2,9.4-6.9,11.5
		c6.1,2.3,9.9,5.9,9.9,13v0.1c0,9.7-7.9,14.5-19.9,14.5h-25.2V498.3z M285,513.9c0-3.5-2.7-5.5-7.7-5.5h-11.5v11.2h10.7
		c5.1,0,8.4-1.7,8.4-5.6L285,513.9L285,513.9z M279.3,529.4h-13.4V541h13.9c5.1,0,8.2-1.8,8.2-5.8v-0.1
		C288,531.6,285.3,529.4,279.3,529.4z"/>
	<path fill="#C15B1B" d="M307.3,498.3h39.9v10.4h-28.4v10.7h25v10.4h-25v11.1h28.8v10.4h-40.3V498.3z"/>
	<path fill="#C15B1B" d="M357.9,498.3h24.2c6.7,0,12,1.9,15.4,5.4c2.9,2.9,4.5,7.1,4.5,12.1v0.1c0,8.5-4.6,13.9-11.3,16.4l12.9,18.9
		H390l-11.3-16.9h-9.1v17h-11.7v-53H357.9z M381.5,524c5.7,0,8.9-3,8.9-7.5v-0.1c0-5-3.5-7.6-9.1-7.6h-11.6v15.2h11.8V524z"/>
	<path fill="#C15B1B" d="M430.9,497.9h10.7l22.7,53.4h-12.2l-4.8-11.9h-22.4l-4.8,11.9h-11.9L430.9,497.9z M443,529.1l-7-17.1
		l-7,17.1H443z"/>
	<path fill="#C15B1B" d="M477.2,509h-16.1v-10.7H505V509H489v42.2h-11.7V509H477.2z"/>
	<path fill="#C15B1B" d="M505.9,524.9v-0.1c0-15,11.9-27.4,28.3-27.4c16.4,0,28.1,12.2,28.1,27.2v0.1c0,15-11.9,27.4-28.3,27.4
		C517.6,552.2,505.9,540,505.9,524.9z M550,524.9v-0.1c0-9-6.6-16.6-16.1-16.6c-9.5,0-15.9,7.5-15.9,16.5v0.1
		c0,9,6.6,16.6,16.1,16.6S550,534,550,524.9z"/>
	<path fill="#C15B1B" d="M568.7,498.3h24.2c6.7,0,12,1.9,15.4,5.4c2.9,2.9,4.5,7.1,4.5,12.1v0.1c0,8.5-4.6,13.9-11.3,16.4l12.9,18.9
		h-13.7l-11.3-16.9h-9.1v17h-11.7v-53H568.7z M592.2,524c5.7,0,8.9-3,8.9-7.5v-0.1c0-5-3.5-7.6-9.1-7.6h-11.6v15.2h11.8V524z"/>
</g>
</svg>
